<svg width="335" height="146" viewBox="0 0 335 146" fill="none" xmlns="http://www.w3.org/2000/svg">
<g clip-path="url(#clip0_326_290)">
<path d="M207.284 31.5155L181.598 5.82875C177.855 2.09615 172.786 0 167.5 0C162.215 0 157.145 2.09615 153.402 5.82875L127.716 31.5155C126.534 32.691 125.597 34.0892 124.959 35.6292C124.321 37.1693 123.995 38.8205 124 40.4874V78.1076C124.004 80.466 124.943 82.7267 126.611 84.3936C128.28 86.0606 130.541 86.9978 132.899 86.9998H202.101C204.459 86.9978 206.72 86.0606 208.389 84.3936C210.057 82.7267 210.996 80.466 211 78.1076V40.4874C211.005 38.8205 210.679 37.1693 210.041 35.6292C209.403 34.0892 208.466 32.691 207.284 31.5155ZM200.125 76.1248H182V64.59C182 60.9193 180.542 57.399 177.946 54.8035C175.351 52.2079 171.83 50.7498 168.16 50.7498H166.84C163.17 50.7498 159.649 52.2079 157.054 54.8035C154.458 57.399 153 60.9193 153 64.59V76.1248H134.875V40.4874C134.876 40.0067 135.066 39.5458 135.404 39.2041L161.091 13.5174C161.933 12.6756 162.932 12.0078 164.031 11.5523C165.131 11.0967 166.31 10.8622 167.5 10.8622C168.69 10.8622 169.869 11.0967 170.969 11.5523C172.068 12.0078 173.067 12.6756 173.909 13.5174L199.596 39.2041C199.934 39.5458 200.124 40.0067 200.125 40.4874V76.1248Z" fill="white"/>
</g>
<path d="M61.0421 138V111.818H67.3702V122.327H77.687V111.818H84.0023V138H77.687V127.479H67.3702V138H61.0421ZM97.138 138.371C95.0755 138.371 93.3027 137.949 91.8198 137.105C90.3453 136.253 89.2076 135.068 88.4064 133.551C87.6138 132.026 87.2175 130.257 87.2175 128.246C87.2175 126.226 87.6138 124.457 88.4064 122.94C89.2076 121.415 90.3453 120.23 91.8198 119.386C93.3027 118.534 95.0755 118.108 97.138 118.108C99.2005 118.108 100.969 118.534 102.443 119.386C103.926 120.23 105.064 121.415 105.857 122.94C106.658 124.457 107.058 126.226 107.058 128.246C107.058 130.257 106.658 132.026 105.857 133.551C105.064 135.068 103.926 136.253 102.443 137.105C100.969 137.949 99.2005 138.371 97.138 138.371ZM97.1763 133.653C97.9263 133.653 98.5613 133.423 99.0811 132.963C99.601 132.503 99.9973 131.864 100.27 131.045C100.551 130.227 100.692 129.281 100.692 128.207C100.692 127.116 100.551 126.162 100.27 125.344C99.9973 124.526 99.601 123.886 99.0811 123.426C98.5613 122.966 97.9263 122.736 97.1763 122.736C96.4007 122.736 95.7445 122.966 95.2076 123.426C94.6792 123.886 94.2743 124.526 93.9931 125.344C93.7203 126.162 93.584 127.116 93.584 128.207C93.584 129.281 93.7203 130.227 93.9931 131.045C94.2743 131.864 94.6792 132.503 95.2076 132.963C95.7445 133.423 96.4007 133.653 97.1763 133.653ZM110.261 138V118.364H116.205V121.969H116.423C116.832 120.776 117.522 119.834 118.494 119.143C119.465 118.453 120.624 118.108 121.971 118.108C123.335 118.108 124.502 118.457 125.474 119.156C126.445 119.855 127.063 120.793 127.328 121.969H127.532C127.899 120.801 128.615 119.868 129.68 119.169C130.745 118.462 132.002 118.108 133.451 118.108C135.309 118.108 136.818 118.705 137.977 119.898C139.136 121.082 139.715 122.71 139.715 124.781V138H133.464V126.213C133.464 125.233 133.213 124.487 132.71 123.976C132.207 123.456 131.555 123.196 130.754 123.196C129.893 123.196 129.215 123.477 128.721 124.04C128.235 124.594 127.992 125.339 127.992 126.277V138H121.984V126.149C121.984 125.237 121.737 124.517 121.242 123.989C120.748 123.46 120.096 123.196 119.286 123.196C118.741 123.196 118.259 123.328 117.842 123.592C117.424 123.848 117.096 124.214 116.857 124.692C116.627 125.169 116.512 125.732 116.512 126.379V138H110.261ZM152.768 138.371C150.714 138.371 148.941 137.966 147.45 137.156C145.967 136.338 144.825 135.175 144.024 133.666C143.231 132.149 142.835 130.347 142.835 128.259C142.835 126.23 143.235 124.457 144.036 122.94C144.838 121.415 145.967 120.23 147.424 119.386C148.882 118.534 150.599 118.108 152.576 118.108C153.974 118.108 155.252 118.325 156.411 118.76C157.57 119.195 158.572 119.838 159.416 120.69C160.259 121.543 160.916 122.595 161.384 123.848C161.853 125.092 162.088 126.52 162.088 128.131V129.69H145.021V126.06H156.271C156.262 125.395 156.105 124.803 155.798 124.283C155.491 123.763 155.069 123.358 154.532 123.068C154.004 122.77 153.394 122.621 152.704 122.621C152.005 122.621 151.379 122.778 150.825 123.094C150.271 123.401 149.832 123.822 149.508 124.359C149.184 124.888 149.014 125.489 148.997 126.162V129.857C148.997 130.658 149.154 131.361 149.47 131.966C149.785 132.562 150.232 133.027 150.812 133.359C151.392 133.692 152.082 133.858 152.883 133.858C153.437 133.858 153.94 133.781 154.392 133.628C154.843 133.474 155.231 133.249 155.555 132.95C155.879 132.652 156.122 132.286 156.284 131.851L162.024 132.017C161.785 133.304 161.261 134.425 160.451 135.379C159.65 136.325 158.597 137.062 157.294 137.591C155.99 138.111 154.481 138.371 152.768 138.371ZM165.28 138V111.818H171.608V122.327H181.925V111.818H188.241V138H181.925V127.479H171.608V138H165.28ZM197.746 138.332C196.493 138.332 195.381 138.124 194.409 137.706C193.446 137.28 192.683 136.641 192.121 135.788C191.567 134.928 191.29 133.849 191.29 132.554C191.29 131.463 191.481 130.543 191.865 129.793C192.248 129.043 192.777 128.433 193.45 127.964C194.123 127.496 194.899 127.142 195.777 126.903C196.655 126.656 197.592 126.49 198.589 126.405C199.706 126.303 200.605 126.196 201.287 126.085C201.969 125.966 202.463 125.8 202.77 125.587C203.085 125.365 203.243 125.054 203.243 124.653V124.589C203.243 123.933 203.017 123.426 202.565 123.068C202.113 122.71 201.504 122.531 200.737 122.531C199.91 122.531 199.246 122.71 198.743 123.068C198.24 123.426 197.92 123.92 197.784 124.551L192.018 124.347C192.189 123.153 192.628 122.088 193.335 121.151C194.051 120.205 195.031 119.463 196.275 118.926C197.528 118.381 199.032 118.108 200.788 118.108C202.041 118.108 203.196 118.257 204.253 118.555C205.309 118.845 206.23 119.271 207.014 119.834C207.798 120.388 208.403 121.07 208.829 121.879C209.264 122.689 209.481 123.614 209.481 124.653V138H203.601V135.264H203.447C203.098 135.929 202.65 136.491 202.105 136.952C201.568 137.412 200.933 137.757 200.2 137.987C199.476 138.217 198.657 138.332 197.746 138.332ZM199.676 134.241C200.349 134.241 200.954 134.105 201.491 133.832C202.037 133.56 202.471 133.185 202.795 132.707C203.119 132.222 203.281 131.659 203.281 131.02V129.153C203.102 129.247 202.885 129.332 202.629 129.409C202.382 129.486 202.109 129.558 201.811 129.626C201.513 129.695 201.206 129.754 200.89 129.805C200.575 129.857 200.273 129.903 199.983 129.946C199.395 130.04 198.892 130.185 198.474 130.381C198.065 130.577 197.75 130.832 197.528 131.148C197.315 131.455 197.209 131.821 197.209 132.247C197.209 132.895 197.439 133.389 197.899 133.73C198.368 134.071 198.96 134.241 199.676 134.241ZM231.649 118.364L224.912 138H217.753L211.028 118.364H217.612L221.23 131.889H221.434L225.065 118.364H231.649ZM242.592 138.371C240.538 138.371 238.765 137.966 237.274 137.156C235.791 136.338 234.649 135.175 233.848 133.666C233.055 132.149 232.659 130.347 232.659 128.259C232.659 126.23 233.059 124.457 233.861 122.94C234.662 121.415 235.791 120.23 237.248 119.386C238.706 118.534 240.423 118.108 242.4 118.108C243.798 118.108 245.077 118.325 246.236 118.76C247.395 119.195 248.396 119.838 249.24 120.69C250.084 121.543 250.74 122.595 251.209 123.848C251.677 125.092 251.912 126.52 251.912 128.131V129.69H234.845V126.06H246.095C246.086 125.395 245.929 124.803 245.622 124.283C245.315 123.763 244.893 123.358 244.356 123.068C243.828 122.77 243.219 122.621 242.528 122.621C241.829 122.621 241.203 122.778 240.649 123.094C240.095 123.401 239.656 123.822 239.332 124.359C239.008 124.888 238.838 125.489 238.821 126.162V129.857C238.821 130.658 238.979 131.361 239.294 131.966C239.609 132.562 240.057 133.027 240.636 133.359C241.216 133.692 241.906 133.858 242.707 133.858C243.261 133.858 243.764 133.781 244.216 133.628C244.667 133.474 245.055 133.249 245.379 132.95C245.703 132.652 245.946 132.286 246.108 131.851L251.848 132.017C251.609 133.304 251.085 134.425 250.275 135.379C249.474 136.325 248.422 137.062 247.118 137.591C245.814 138.111 244.305 138.371 242.592 138.371ZM261.356 126.801V138H255.105V118.364H261.049V121.969H261.267C261.701 120.767 262.443 119.825 263.491 119.143C264.539 118.453 265.788 118.108 267.237 118.108C268.617 118.108 269.815 118.419 270.829 119.041C271.852 119.655 272.644 120.516 273.207 121.624C273.778 122.723 274.059 124.01 274.051 125.484V138H267.799V126.712C267.808 125.621 267.531 124.768 266.968 124.155C266.414 123.541 265.643 123.234 264.654 123.234C263.998 123.234 263.419 123.379 262.916 123.669C262.421 123.95 262.038 124.355 261.765 124.884C261.501 125.412 261.365 126.051 261.356 126.801Z" fill="white"/>
<defs>
<clipPath id="clip0_326_290">
<rect width="87" height="87" fill="white" transform="translate(124)"/>
</clipPath>
</defs>
</svg>
